:version 1.10
:name ASF
:units
  mass 1
  length 1
  angle deg
:documentation
  ASF file generated by Kaydara
:root
  axis xyz
  order  tx ty tz rx ry rz
  position 0 0 0
  orientation 0 0 0
:bonedata
  begin
    id 1
    name RightUpLegDummy
    direction -0.65628 -0.754516 0.00165102
    length 4.76918
    axis 0 0 0 xyz
  end
  begin
    id 2
    name RightUpLeg
    direction -0.145584 -0.923362 0.355256
    length 17.9961
    axis -24.7611 -13.1006 1.78531 xyz
    dof rx ry rz
  end
  begin
    id 3
    name RightLeg
    direction 0.263379 0.172355 -0.949171
    length 13.3386
    axis 89.6202 -21.1929 12.3855 xyz
    dof rx ry rz
  end
  begin
    id 4
    name RightFoot
    direction 0.224283 -0.968777 -0.105675
    length 5.86697
    axis 56.995 -39.6905 17.3365 xyz
    dof rx ry rz
  end
  begin
    id 5
    name RightToes
    direction -0.0806345 -0.9037 0.420506
    length 4.75197
    axis 146.825 -39.7828 17.6019 xyz
    dof rx ry rz
  end
  begin
    id 6
    name SpineDummy
    direction -3.39852e-014 1 9.33296e-014
    length 8.13779
    axis 0 0 0 xyz
  end
  begin
    id 7
    name Spine
    direction -0.156609 0.733703 0.661176
    length 7.14978
    axis 41.2365 5.68757 17.0844 xyz
    dof rx ry rz
  end
  begin
    id 8
    name Spine1
    direction 0 0 0
    length 0
    axis 42.8809 47.8308 -3.36039 xyz
    dof rx ry rz
  end
  begin
    id 9
    name HEadDummy
    direction 0.546431 0.701947 0.456819
    length 3.55512
    axis 42.8809 47.8308 -3.36039 xyz
  end
  begin
    id 10
    name HEad
    direction 0.23444 0.828559 0.508457
    length 7.35827
    axis 51.1864 49.2662 27.4903 xyz
    dof rx ry rz
  end
  begin
    id 11
    name LeftShoulder1Dummy
    direction 0.431183 0.475873 -0.766568
    length 2.49352
    axis 42.8809 47.8308 -3.36039 xyz
  end
  begin
    id 12
    name LeftShoulder1
    direction 0.268187 -0.383402 -0.883786
    length 4.48604
    axis -119.517 0.106469 35.1736 xyz
    dof rx ry rz
  end
  begin
    id 13
    name LeftArm
    direction 0.380567 -0.703221 -0.600541
    length 10.1142
    axis -5.41825 36.2925 7.8293 xyz
    dof rx ry rz
  end
  begin
    id 14
    name LeftForeArm
    direction 0.541071 -0.732356 -0.413396
    length 9.39839
    axis 4.65387 33.7604 7.81644 xyz
    dof rx ry rz
  end
  begin
    id 15
    name LeftHand
    direction 0.847511 -0.389379 -0.360707
    length 3.66142
    axis 7.65593 21.1436 -24.6758 xyz
    dof rx ry rz
  end
  begin
    id 16
    name RightShoulderDummy
    direction -0.692546 0.541855 0.476208
    length 2.49352
    axis 42.8809 47.8308 -3.36039 xyz
  end
  begin
    id 17
    name RightShoulder
    direction -0.870808 -0.316653 0.376065
    length 4.48602
    axis 141.571 51.133 -100.254 xyz
    dof rx ry rz
  end
  begin
    id 18
    name RightArm
    direction 0.366897 -0.87275 0.322015
    length 10.1142
    axis 92.3258 71.2036 138.917 xyz
    dof rx ry rz
  end
  begin
    id 19
    name RightForeArm
    direction 0.702487 -0.694568 0.155197
    length 9.39835
    axis 153.863 41.5092 -176.604 xyz
    dof rx ry rz
  end
  begin
    id 20
    name RightHand
    direction 0.79502 -0.601276 0.0800636
    length 3.66142
    axis 154.247 4.59222 142.9 xyz
    dof rx ry rz
  end
  begin
    id 21
    name LeftUpLegDummy
    direction 0.65628 -0.754516 0.00165102
    length 4.76919
    axis 0 0 0 xyz
  end
  begin
    id 22
    name LeftUpLeg
    direction -0.1277 -0.689368 0.713067
    length 17.9961
    axis -48.3385 -17.8675 0.791927 xyz
    dof rx ry rz
  end
  begin
    id 23
    name LeftLeg
    direction 0.109849 -0.991246 -0.0732378
    length 13.3386
    axis -2.05791 -7.30784 1.72042 xyz
    dof rx ry rz
  end
  begin
    id 24
    name LeftFoot
    direction 0.0448355 -0.272614 0.961078
    length 5.86697
    axis -18.7733 -7.89606 10.2113 xyz
    dof rx ry rz
  end
  begin
    id 25
    name LeftToes
    direction -0.18506 0.293668 0.937823
    length 4.75197
    axis 71.2267 -7.89606 10.2113 xyz
    dof rx ry rz
  end
:hierarchy
  begin
    root RightUpLegDummy SpineDummy LeftUpLegDummy
    RightUpLegDummy RightUpLeg
    RightUpLeg RightLeg
    RightLeg RightFoot
    RightFoot RightToes
    SpineDummy Spine
    Spine Spine1
    Spine1 HEadDummy LeftShoulder1Dummy RightShoulderDummy
    HEadDummy HEad
    LeftShoulder1Dummy LeftShoulder1
    LeftShoulder1 LeftArm
    LeftArm LeftForeArm
    LeftForeArm LeftHand
    RightShoulderDummy RightShoulder
    RightShoulder RightArm
    RightArm RightForeArm
    RightForeArm RightHand
    LeftUpLegDummy LeftUpLeg
    LeftUpLeg LeftLeg
    LeftLeg LeftFoot
    LeftFoot LeftToes
  end

:SAMPLES-PER-SECOND 30
:FULLY-SPECIFIED
:DEGREES
106
root  -10.0807 36.394 20.2074 -178.981 -35.2244 166.879
RightUpLeg  -2.49753 17.5007 7.36
RightLeg  -39.118 -26.3614 5.18375
RightFoot  20.9853 4.84224 -16.0239
RightToes  -1.27222e-014 -6.36111e-015 6.36111e-015
Spine  -23.4566 -15.4776 -13.2954
Spine1  2.25873 -11.9198 36.6306
HEad  -11.2544 -41.3383 -16.2149
LeftShoulder1  6.36111e-015 -1.33558e-015 6.49777e-015
LeftArm  35.3311 -9.29319 -49.2408
LeftForeArm  -0.6652 -32.661 0.292883
LeftHand  -2.43264 -5.55167 -8.99221
RightShoulder  -4.77083e-015 -6.36111e-015 -3.18055e-015
RightArm  27.323 -16.7487 11.7676
RightForeArm  -15.2261 -1.94588 -11.563
RightHand  0.450976 2.68735 -8.55938
LeftUpLeg  33.4379 21.7983 1.76495
LeftLeg  8.54835 -3.4195 -0.00756723
LeftFoot  -15.0124 1.46878 -8.86623
LeftToes  9.54166e-015 -1.91609e-011 -2.3878e-011
107
root  -9.15926 35.2234 20.9929 -179.084 -33.7071 165.508
RightUpLeg  3.14466 20.4019 6.05516
RightLeg  -23.1685 -27.4369 1.30243
RightFoot  17.889 6.67884 -18.4699
RightToes  -1.27222e-014 -6.36111e-015 6.36111e-015
Spine  -22.6261 -14.2521 -12.83
Spine1  7.76752 -11.113 31.0587
HEad  -18.4251 -43.4779 -10.8146
LeftShoulder1  6.36111e-015 -1.33558e-015 6.49777e-015
LeftArm  37.2938 -9.75766 -52.765
LeftForeArm  -0.271275 -32.1606 0.0677193
LeftHand  -1.6246 -3.1389 -7.5976
RightShoulder  -4.77083e-015 -6.36111e-015 -3.18055e-015
RightArm  20.4693 -6.73794 14.525
RightForeArm  -16.8307 3.3183 -14.7426
RightHand  0.792888 2.05429 -10.1514
LeftUpLeg  30.4054 23.3212 1.80699
LeftLeg  13.3937 -0.382258 1.42681
LeftFoot  -20.618 1.00447 -8.48744
LeftToes  9.54166e-015 -1.91609e-011 -2.3878e-011
108
root  -8.17569 34.3097 21.6704 -178.692 -32.8914 163.961
RightUpLeg  10.0193 22.6832 3.17169
RightLeg  -13.0958 -30.9705 -0.751566
RightFoot  16.5099 7.34241 -19.4106
RightToes  -1.27222e-014 -6.36111e-015 6.36111e-015
Spine  -22.2156 -13.5751 -12.6163
Spine1  12.1066 -10.3986 26.233
HEad  -25.2071 -46.4361 -4.81318
LeftShoulder1  6.36111e-015 -1.33558e-015 6.49777e-015
LeftArm  38.6398 -7.67192 -52.5613
LeftForeArm  1.23959 -36.038 0.33218
LeftHand  -0.276088 0.609901 -5.77036
RightShoulder  -4.77083e-015 -6.36111e-015 -3.18055e-015
RightArm  15.6898 1.79308 14.8648
RightForeArm  -19.1071 7.30141 -17.9366
RightHand  0.899621 1.94833 -10.827
LeftUpLeg  26.6545 23.6341 1.13495
LeftLeg  17.8915 0.837766 2.53678
LeftFoot  -22.8314 0.864007 -8.68968
LeftToes  9.54166e-015 -1.91609e-011 -2.3878e-011
109
root  -7.19933 33.969 22.1305 -178.08 -31.5396 163.164
RightUpLeg  16.5613 25.5249 0.209242
RightLeg  -9.5849 -34.4898 -1.65712
RightFoot  17.1628 7.69287 -20.056
RightToes  -1.27222e-014 -6.36111e-015 6.36111e-015
Spine  -22.1874 -12.4828 -12.2881
Spine1  13.3649 -9.35514 22.2115
HEad  -28.6643 -50.2224 0.383318
LeftShoulder1  6.36111e-015 -1.33558e-015 6.49777e-015
LeftArm  40.1046 -3.17695 -49.9486
LeftForeArm  2.06244 -40.7112 1.06927
LeftHand  0.939821 3.58717 -3.85662
RightShoulder  -4.77083e-015 -6.36111e-015 -3.18055e-015
RightArm  13.1641 6.62705 14.3103
RightForeArm  -20.745 10.774 -20.9145
RightHand  0.623357 2.52546 -9.7533
LeftUpLeg  23.82 23.6574 2.20023
LeftLeg  19.9531 0.0187701 2.41443
LeftFoot  -21.6751 1.06634 -9.8781
LeftToes  9.54166e-015 -1.91609e-011 -2.3878e-011
110
root  -6.28032 34.3219 22.3284 -177.735 -29.0356 163.739
RightUpLeg  21.7227 28.4067 -1.40686
RightLeg  -13.3425 -36.3846 -0.197937
RightFoot  18.8182 9.02649 -22.3411
RightToes  -1.27222e-014 -6.36111e-015 6.36111e-015
Spine  -22.7355 -10.4136 -11.2106
Spine1  11.6326 -8.01308 18.4371
HEad  -26.8069 -53.8225 2.56638
LeftShoulder1  6.36111e-015 -1.33558e-015 6.49777e-015
LeftArm  42.3651 2.17084 -46.5023
LeftForeArm  0.952662 -42.315 1.98441
LeftHand  1.37131 4.45254 -2.84607
RightShoulder  -4.77083e-015 -6.36111e-015 -3.18055e-015
RightArm  12.8274 6.91323 14.4924
RightForeArm  -21.4828 14.2202 -23.7182
RightHand  0.14613 3.45942 -7.47017
LeftUpLeg  23.5119 23.8742 5.62572
LeftLeg  17.8461 -1.16739 1.58442
LeftFoot  -18.804 1.50007 -11.4196
LeftToes  9.54166e-015 -1.91609e-011 -2.3878e-011
111
root  -5.32297 35.3466 22.3118 -177.495 -26.2723 165.529
RightUpLeg  24.7972 29.96 -1.98148
RightLeg  -23.4311 -35.3197 3.48424
RightFoot  20.803 10.0437 -24.0041
RightToes  -1.27222e-014 -6.36111e-015 6.36111e-015
Spine  -24.4338 -8.07729 -9.50426
Spine1  8.71972 -7.00686 15.5349
HEad  -20.5608 -55.8578 0.858586
LeftShoulder1  6.36111e-015 -1.33558e-015 6.49777e-015
LeftArm  44.6227 7.19552 -42.8146
LeftForeArm  -1.04027 -41.0514 2.50686
LeftHand  1.22593 4.12961 -3.07983
RightShoulder  -4.77083e-015 -6.36111e-015 -3.18055e-015
RightArm  14.2284 3.68351 15.9103
RightForeArm  -22.9064 16.6607 -26.372
RightHand  -0.243203 4.20187 -5.23665
LeftUpLeg  25.444 23.1943 9.74944
LeftLeg  10.9264 -1.9509 0.623202
LeftFoot  -13.7375 2.15188 -12.3091
LeftToes  9.54166e-015 -1.91609e-011 -2.3878e-011
